<?xml version="1.0" encoding="UTF-8"?>
<svg id="Layer_2" data-name="Layer 2" xmlns="http://www.w3.org/2000/svg" viewBox="0 0 747.73 173.45">
  <defs>
    <style>
      .cls-1 {
        fill: #e6e6e6;
      }

      .cls-2 {
        fill: #b3b3b3;
        font-family: Inter-Bold, Inter;
        font-size: 25.69px;
        font-variation-settings: 'opsz' 14, 'wght' 700;
        font-weight: 700;
      }

      .cls-3 {
        fill: #dc2b28;
      }
    </style>
  </defs>
  <g id="Layer_1-2" data-name="Layer 1">
    <g>
      <g>
        <g>
          <g>
            <path class="cls-1" d="M192.23,116l10.26-58.28h29.32l-.8,4.57c4-3.65,9.7-5.21,17.08-4.66l-2.91,16.53-15.46,1.24-7.26,40.6h-30.23Z"/>
            <path class="cls-1" d="M360.5,57.54h19.34c3.71,0,6.81.23,9.28.68,2.47.45,4.41,1.19,5.81,2.22,1.4,1.02,2.3,2.37,2.71,4.02.41,1.66.4,3.66-.01,6.03l-5.7,32.48c-.44,2.42-1.16,4.46-2.15,6.12-.99,1.66-2.36,3-4.12,4.02-1.76,1.02-3.95,1.76-6.6,2.22-2.64.45-5.82.68-9.53.68h-29.56c-3.71,0-6.8-.23-9.27-.68-2.47-.45-4.39-1.18-5.77-2.17-1.38-1-2.27-2.32-2.69-3.98-.41-1.66-.39-3.72.06-6.2l10.73-61.07h30.21l-2.75,15.64ZM356.74,104.97c2.79,0,4.44-1.45,4.95-4.34l4.64-26.33c.26-1.57.12-2.69-.42-3.35-.54-.66-1.54-.99-3-.99-2.81,0-4.47,1.45-4.98,4.34l-4.64,26.33c-.51,2.9.64,4.34,3.45,4.34Z"/>
            <path class="cls-1" d="M467.84,102.88c-.44,2.5-1.16,4.58-2.15,6.25-.99,1.67-2.37,3.04-4.14,4.1-1.77,1.06-3.97,1.82-6.61,2.27-2.63.45-5.81.68-9.52.68h-29.56c-3.71,0-6.81-.23-9.28-.68-2.47-.45-4.4-1.2-5.77-2.23-1.37-1.03-2.25-2.4-2.65-4.1-.4-1.7-.38-3.8.06-6.29l5.61-31.88c.44-2.5,1.16-4.59,2.16-6.29,1-1.7,2.36-3.07,4.1-4.1,1.73-1.03,3.92-1.77,6.55-2.23,2.63-.45,5.81-.68,9.52-.68h29.56c3.71,0,6.81.23,9.28.68,2.47.45,4.41,1.21,5.8,2.27,1.39,1.06,2.29,2.44,2.69,4.14.4,1.7.38,3.77-.05,6.2l-4.7,25.2-38.91-.28-.38,2c-.52,2.97.36,7.06,3.16,7.06,1.46,0,2.58-.35,3.37-1.05.79-.7,1.33-1.83,1.6-3.41l30.67-.08-.43,2.44ZM431.88,79.46l-.8,4.66h9.02l.8-4.66c.58-3.28-.65-4.92-3.68-4.92-1.59,0-2.8.38-3.63,1.15-.83.77-1.4,2.02-1.71,3.78Z"/>
            <path class="cls-1" d="M315.5,102.88c-.44,2.5-1.16,4.58-2.15,6.25-.99,1.67-2.37,3.04-4.14,4.1-1.77,1.06-3.97,1.82-6.61,2.27-2.63.45-5.81.68-9.52.68h-29.56c-3.71,0-6.81-.23-9.28-.68-2.47-.45-4.4-1.2-5.77-2.23-1.37-1.03-2.25-2.4-2.65-4.1-.4-1.7-.38-3.8.06-6.29l5.61-31.88c.44-2.5,1.16-4.59,2.16-6.29,1-1.7,2.36-3.07,4.1-4.1,1.73-1.03,3.92-1.77,6.55-2.23,2.63-.45,5.81-.68,9.52-.68h29.56c3.71,0,6.81.23,9.28.68,2.47.45,4.41,1.21,5.8,2.27s2.29,2.44,2.69,4.14c.4,1.7.38,3.77-.05,6.2l-4.7,25.2-38.91-.28-.38,2c-.52,2.97.36,7.06,3.16,7.06,1.46,0,2.58-.35,3.37-1.05.79-.7,1.33-1.83,1.6-3.41l30.67-.08-.43,2.44ZM279.55,79.46l-.8,4.66h9.02l.8-4.66c.58-3.28-.65-4.92-3.68-4.92-1.59,0-2.8.38-3.63,1.15-.83.77-1.4,2.02-1.71,3.78Z"/>
          </g>
          <path class="cls-1" d="M471.81,116l13.05-74.1h30.12l-13.05,74.1h-30.12Z"/>
        </g>
        <g>
          <path class="cls-3" d="M507.86,120.91l14.53-81.27,14.53.56-13.24,80.67-15.82.04Z"/>
          <g>
            <path class="cls-1" d="M577.01,78.26l.92-5.12c.33-1.77.18-2.99-.44-3.65s-1.71-1-3.29-1-2.79.36-3.61,1.09c-.82.73-1.38,1.92-1.69,3.56l-.34,1.92h-29.3l.76-4.19c.44-2.51,1.16-4.62,2.16-6.32,1-1.7,2.37-3.07,4.13-4.11,1.76-1.04,3.95-1.79,6.59-2.24,2.63-.45,5.81-.68,9.52-.68h28.12c3.71,0,6.81.23,9.28.68,2.47.45,4.41,1.21,5.81,2.28,1.4,1.07,2.3,2.46,2.69,4.17.39,1.71.38,3.78-.04,6.22l-7.97,45.14h-47.92c-6.82.12-11.74-1.24-14.74-4.07-3-2.83-4.03-8.11-3.1-15.85,3.04-11.54,11.11-17.48,24.22-17.82h18.22ZM573.56,99.09l1.03-5.86c.22-1.26-1.31-2.59-2.52-2.2l-1.26.4c-2.08.67-3.57,1.46-4.48,2.37-.91.91-1.53,2.25-1.86,4.02l-.22,1.27c-.55,3.1.7,4.66,3.75,4.66,1.57,0,2.82-.36,3.75-1.09.92-.73,1.53-1.92,1.82-3.56Z"/>
            <path class="cls-1" d="M647.11,57.54h19.34c3.71,0,6.81.23,9.28.68,2.47.45,4.41,1.19,5.81,2.22,1.4,1.02,2.3,2.37,2.71,4.02.41,1.66.4,3.66-.01,6.03l-5.7,32.48c-.44,2.42-1.16,4.46-2.15,6.12-.99,1.66-2.36,3-4.12,4.02-1.76,1.02-3.95,1.76-6.6,2.22-2.64.45-5.82.68-9.53.68h-29.56c-3.71,0-6.8-.23-9.27-.68-2.47-.45-4.39-1.18-5.77-2.17-1.38-1-2.27-2.32-2.69-3.98-.41-1.66-.39-3.72.06-6.2l10.73-61.07h30.21l-2.75,15.64ZM644.49,101.66c2.79,0,4.44-1.45,4.95-4.34l3.5-23.02c.26-1.57.12-2.69-.42-3.35-.54-.66-1.54-.99-3-.99-2.81,0-4.47,1.45-4.98,4.34l-3.5,23.02c-.51,2.9.64,4.34,3.45,4.34Z"/>
            <path class="cls-1" d="M682.51,116l1.88-10.67,28.17-35.58h-19.81l2.15-12.23h52.82l-1.9,10.76-28.18,35.78h23.35l-2.1,11.94h-56.39Z"/>
          </g>
        </g>
      </g>
      <text class="cls-2" transform="translate(499.64 153.3) scale(.97) skewX(-14.14)"><tspan x="0" y="0">SOLVE &amp; EVOLVE</tspan></text>
      <g>
        <path class="cls-1" d="M27.41,77.1c-1.64,2.08-1.9,5.78-1.24,7.44.57,1.43,3.24,3.8,5.09,3.75,12.19-.32,25.27-.46,37.07-.1,12.32.37,20.3,10.62,18.02,23.01l-10.85,58.89c-.31,1.71-1.83,2.98-3.55,3l-35.47.27c-.98,0-1.9-.4-2.53-1.12l-5.51-6.32c-.9-1.04-1.07-2.55-.42-3.83,5.27-10.21,9.95-19.19,15.59-27.53,3.27-4.83,8.59-8.06,10.27-11.01,3.04-5.38,2.53-11.28-1.97-13.16s-11.37,1.68-13.45,6.98c-1.7,4.34-.81,9.13-2.16,13.57-2.49,8.15-5.54,16.98-9.14,25.62-1.01,2.43-4.2,3.05-5.87,1.14L1.41,134.9c-1.14-1.31-1.62-3.09-1.31-4.86L13.68,53.3c18.6-1.05,36.09.44,54.22,2.37,4.18.45,10.04-2.63,11.28-8.77,1.45-7.2-4.22-11.16-9.18-9.58-18.65,5.98-36.81,10.96-55.43,12.65l-.31.03s2.91-16.43,4.84-27.33C21.03,11.77,72.14,1.71,77.06,1.71c3.7,0,11.95-.01,19.06-.01,5.1,0,8.48,4.14,7.54,9.24l-10.84,61.16c-1.39,7.55-9.35,13.18-16.46,11.62-12.69-2.78-25.58-5.9-38.39-9.92-3.66-1.15-8.07.14-10.57,3.3Z"/>
        <g>
          <g>
            <path class="cls-3" d="M155.55,118.81c-1.18,3-4.13,4.97-7.02,4.97-3.78,0-5.74-3.16-5.17-6.38.12-.66.32-1.29.6-1.89,5.82-12.34,9.07-25.35,11.34-38.24l2.6-14.75h2.88l-2.67,15.1c-2.29,12.97-2.29,25.74-2.06,38.47.02.86-.15,1.77-.52,2.71Z"/>
            <path class="cls-3" d="M156.16,45.72c1.18-3,4.13-4.97,7.02-4.97,3.78,0,5.74,3.16,5.17,6.38-.12.66-.32,1.29-.6,1.89-5.82,12.34-9.07,25.35-11.34,38.24l-2.6,14.75h-2.88l2.67-15.1c2.29-12.97,2.29-25.74,2.06-38.47-.02-.86.15-1.77.52-2.71Z"/>
          </g>
          <g>
            <path class="cls-3" d="M130.83,147.7c-1.64,4.16-5.74,6.9-9.75,6.9-5.24,0-7.97-4.39-7.18-8.86.16-.91.45-1.79.84-2.62,8.08-17.14,12.59-35.2,15.75-53.09l3.61-20.48h4l-3.7,20.97c-3.18,18.01-3.18,35.74-2.85,53.41.02,1.19-.2,2.46-.72,3.76Z"/>
            <path class="cls-3" d="M136.15,20.88c1.64-4.16,5.74-6.9,9.75-6.9,5.24,0,7.97,4.39,7.18,8.86-.16.91-.45,1.79-.84,2.62-8.08,17.14-12.59,35.2-15.75,53.09l-3.61,20.48h-4l3.7-20.97c3.18-18.01,3.18-35.74,2.85-53.41-.02-1.19.2-2.46.72-3.76Z"/>
          </g>
          <g>
            <path class="cls-3" d="M104.22,165.88c-1.8,4.57-6.29,7.57-10.69,7.57-5.75,0-8.74-4.81-7.88-9.71.18-1,.49-1.97.92-2.88,8.86-18.79,13.81-38.6,17.27-58.22l3.96-22.46h4.39l-4.06,23c-3.49,19.75-3.49,39.2-3.13,58.57.02,1.3-.22,2.7-.78,4.13Z"/>
            <path class="cls-3" d="M113.45,7.57c1.8-4.57,6.29-7.57,10.69-7.57,5.75,0,8.74,4.81,7.88,9.71-.18,1-.49,1.97-.92,2.88-8.86,18.79-13.81,38.6-17.27,58.22l-3.96,22.46h-4.39l4.06-23c3.49-19.75,3.49-39.2,3.13-58.57-.02-1.3.22-2.7.78-4.13Z"/>
          </g>
        </g>
      </g>
    </g>
  </g>
</svg>